<svg width="50" height="50" viewBox="0 0 50 50" fill="none" xmlns="http://www.w3.org/2000/svg">
<rect opacity="0.1" x="1" y="1" width="48" height="48" rx="24" stroke="#70F1D9"/>
<path d="M17.4489 34.0813H29.9796L29.3811 32.1435C29.4699 32.2209 34.515 36.5454 34.515 36.5454V17.6295C34.4552 16.4536 33.4429 15.4545 32.1879 15.4545L17.4533 15.4571C16.1993 15.4571 15.1816 16.458 15.1816 17.6339V31.9054C15.1816 33.1453 16.1975 34.0813 17.4489 34.0813V34.0813ZM26.7184 20.4486L26.6894 20.4592L26.6999 20.4486H26.7184ZM20.0123 21.5638C21.6232 20.3915 23.1162 20.4477 23.1162 20.4477L23.2366 20.5664C21.2655 21.0365 20.3718 21.9171 20.3718 21.9171C20.4632 21.8977 24.4432 19.6015 29.266 21.9751C29.266 21.9751 28.3705 21.1516 26.5206 20.6244L26.6841 20.4636C26.9398 20.4644 28.2932 20.5119 29.7414 21.5708C29.7414 21.5708 31.3619 24.339 31.3619 27.7399C31.3083 27.6749 30.3566 29.204 27.9074 29.2567C27.9074 29.2567 27.4926 28.7874 27.1973 28.3779C28.6297 27.9666 29.1658 27.1441 29.1658 27.1441C26.3774 28.8999 23.9335 28.6257 21.0098 27.4394C20.9825 27.4394 20.9702 27.4271 20.9562 27.413V27.4077C20.9421 27.3946 20.9298 27.3814 20.9026 27.3814H20.8498C20.6705 27.2636 20.551 27.2056 20.551 27.2056C20.551 27.2056 21.0862 28.0282 22.4615 28.4394C22.1003 28.8516 21.7427 29.32 21.7427 29.32C19.2944 29.262 18.4015 27.7329 18.4015 27.7329C18.4015 24.3267 20.0123 21.5638 20.0123 21.5638V21.5638Z" fill="#70F1D9"/>
<path d="M26.8764 26.6778C27.5013 26.6778 28.0101 26.1505 28.0101 25.5002C28.0101 24.8543 27.5039 24.327 26.8764 24.327V24.3297C26.2543 24.3297 25.7446 24.8552 25.7428 25.5055C25.7428 26.1505 26.2516 26.6778 26.8764 26.6778Z" fill="#70F1D9"/>
<path d="M22.8183 26.6778C23.4431 26.6778 23.952 26.1505 23.952 25.5002C23.952 24.8543 23.4467 24.327 22.8218 24.327L22.8183 24.3297C22.1935 24.3297 21.6847 24.8552 21.6847 25.5055C21.6847 26.1505 22.1935 26.6778 22.8183 26.6778V26.6778Z" fill="#70F1D9"/>
</svg>
