<svg width="48" height="48" viewBox="0 0 48 48" fill="none" xmlns="http://www.w3.org/2000/svg">
<path fill-rule="evenodd" clip-rule="evenodd" d="M0.399414 24.2C0.399414 11.0547 11.0541 0.400024 24.1994 0.400024C37.3447 0.400024 47.9994 11.0547 47.9994 24.2C47.9994 37.3454 37.3447 48 24.1994 48C11.0541 48 0.399414 37.3454 0.399414 24.2ZM30.8413 37.207L36.6529 31.3953C39.8354 28.2128 39.8354 23.093 36.5145 19.7721C35.1308 18.25 33.1936 17.5582 31.2564 17.4198C31.118 15.4826 30.4262 13.6837 28.9041 12.1616C25.7215 8.97909 20.6017 8.97909 17.4192 12.1616L11.6076 17.9733L15.482 21.8477L13.5448 23.7849C10.3622 26.9674 10.3622 32.0872 13.5448 35.2698C14.9285 36.7919 16.8657 37.4837 18.8029 37.6221C21.0168 37.7605 23.3692 36.9302 25.0296 35.2698L26.8979 33.4015L23.093 29.5966L28.9046 23.785C30.0116 22.678 31.672 22.678 32.779 23.785C33.886 24.7536 33.886 26.5524 32.779 27.6594L27.0363 33.4021L30.8413 37.207ZM25.1685 16.036C26.2755 17.143 26.2755 18.8034 25.1685 19.9104L19.426 25.653L23.2311 29.4581L21.2939 31.3953C20.1869 32.5023 18.5264 32.5023 17.4194 31.3953C16.3125 30.2883 16.3125 28.6278 17.4194 27.5209L19.2876 25.6527L15.4825 21.8476L21.2941 16.036C22.4011 14.929 24.0616 14.929 25.1685 16.036Z" fill="#70F1D9"/>
</svg>
