<svg width="56" height="56" viewBox="0 0 56 56" fill="none" xmlns="http://www.w3.org/2000/svg">
<rect opacity="0.3" width="56" height="56" rx="28" fill="#616572"/>
<path fill-rule="evenodd" clip-rule="evenodd" d="M26.9209 16.0325C23.1818 16.4436 20.0372 18.3316 18.0091 21.3832C15.8705 24.601 15.4133 28.564 16.7622 32.1917C17.3642 33.8108 18.5119 35.5315 19.7791 36.7151C21.7899 38.5932 24.2042 39.6774 26.9877 39.9524C29.4763 40.1982 32.3451 39.4799 34.4976 38.0719C35.9306 37.1345 37.0195 36.0522 37.9882 34.6025C40.6341 30.643 40.672 25.5286 38.0853 21.5186C36.1797 18.5644 33.2346 16.661 29.7351 16.1219C29.0074 16.0097 27.549 15.9634 26.9209 16.0325ZM26.1176 17.9648C26.0868 18.0229 25.9307 18.2815 25.7708 18.5396C25.1527 19.537 24.548 20.7474 24.1068 21.8705C23.9953 22.1543 23.8902 22.4027 23.8731 22.4223C23.8158 22.4885 22.3843 22.126 21.5491 21.834C21.2519 21.73 20.3407 21.3552 20.2423 21.2964C20.2203 21.2832 20.3786 21.0938 20.5942 20.8753C21.6834 19.7719 22.8773 18.9735 24.2467 18.4329C24.7619 18.2295 25.6881 17.9483 26.0295 17.8916C26.094 17.8808 26.1528 17.8692 26.1601 17.8657C26.1675 17.8622 26.1483 17.9068 26.1176 17.9648ZM30.6037 18.043C31.9642 18.402 33.3018 19.0779 34.4272 19.9746C34.8964 20.3485 35.8156 21.2617 35.7576 21.2964C35.5138 21.442 34.1828 21.9428 33.553 22.1258C33.2944 22.201 32.2097 22.4569 32.1498 22.4569C32.1437 22.4569 32.0268 22.1772 31.8902 21.8353C31.4276 20.6774 30.7705 19.3748 30.1599 18.4057C30.0041 18.1582 29.8765 17.9446 29.8765 17.931C29.8765 17.8769 30.1114 17.9131 30.6037 18.043ZM28.3836 18.8337C28.902 19.6256 29.3328 20.3773 29.6536 21.0495C29.9674 21.707 30.4015 22.6997 30.3819 22.7148C30.3306 22.7543 28.7461 22.8329 27.9999 22.8329C26.9108 22.8329 25.6542 22.7468 25.6542 22.6722C25.6542 22.4953 26.4975 20.7136 26.9663 19.9001C27.2661 19.3798 27.968 18.2815 27.9999 18.2826C28.0128 18.283 28.1855 18.531 28.3836 18.8337ZM19.6784 22.9078C20.6619 23.3669 21.7147 23.728 22.8085 23.9814C23.3228 24.1006 23.3625 24.1176 23.3416 24.2101C23.1369 25.1174 23.0084 25.9076 22.9075 26.8786L22.8795 27.1484H20.326H17.7725L17.7727 26.9959C17.773 26.7622 17.9036 26.0033 18.03 25.5013C18.1705 24.9433 18.3432 24.4349 18.575 23.8969C18.7412 23.5111 19.1662 22.6915 19.2 22.6915C19.2083 22.6915 19.4236 22.7888 19.6784 22.9078ZM37.2036 23.4353C37.7243 24.4691 38.0861 25.6567 38.217 26.762C38.2392 26.9493 38.2471 27.113 38.2345 27.1256C38.222 27.1381 37.0667 27.1484 35.6674 27.1484H33.1231L33.0919 26.8083C33.0176 25.9979 32.8353 24.8895 32.6682 24.2327C32.6369 24.1091 32.6393 24.1079 33.098 24.0058C34.1458 23.7728 35.4062 23.3456 36.2688 22.9312C36.5332 22.8042 36.7706 22.7047 36.7964 22.7101C36.8222 22.7156 37.0055 23.0419 37.2036 23.4353ZM26.0529 24.4814C26.9386 24.5619 29.2677 24.5479 30.1782 24.4566C30.5892 24.4154 30.9296 24.3867 30.9347 24.3928C30.9397 24.3989 31.0003 24.6421 31.0693 24.9332C31.2137 25.5419 31.3773 26.599 31.3775 26.9256L31.3778 27.1484H27.9932H24.6085L24.64 26.772C24.6919 26.1489 24.9346 24.8266 25.0684 24.4383C25.0821 24.3986 25.1474 24.3867 25.266 24.4024C25.3634 24.4154 25.7175 24.4509 26.0529 24.4814ZM22.9075 29.1071C23.0084 30.0781 23.1369 30.8684 23.3416 31.7756C23.3625 31.8681 23.3228 31.8851 22.8085 32.0043C21.7127 32.2582 20.6622 32.6187 19.6736 33.0802C19.1198 33.3387 19.2106 33.3958 18.7827 32.5201C18.2444 31.4186 17.887 30.2142 17.7906 29.1767L17.759 28.8373H20.3192H22.8795L22.9075 29.1071ZM31.3623 29.2478C31.3306 29.6902 31.1988 30.4739 31.0385 31.174L30.9386 31.6107L30.7711 31.5859C29.7705 31.4376 27.0568 31.405 25.8184 31.5264C25.4313 31.5644 25.1012 31.5818 25.0848 31.5652C24.9912 31.4704 24.6996 29.9328 24.6407 29.2244L24.6085 28.8373H28.0002H31.3918L31.3623 29.2478ZM38.2346 28.8603C38.3191 28.9448 38.0341 30.3835 37.7748 31.1816C37.5933 31.7401 37.0322 32.9847 36.8584 33.2141C36.7984 33.2933 36.7644 33.2841 36.2795 33.0568C35.3528 32.6224 34.1097 32.2012 33.0977 31.9787C32.6679 31.8842 32.638 31.8702 32.6645 31.7764C32.8051 31.2782 33.0186 29.9805 33.092 29.1775L33.1231 28.8373H35.6674C37.0667 28.8373 38.222 28.8477 38.2346 28.8603ZM29.6654 33.2072C30.0524 33.2373 30.3739 33.2651 30.3797 33.2691C30.4367 33.308 29.4382 35.3949 28.9872 36.1795C28.7119 36.6583 28.0354 37.7022 27.9999 37.7029C27.9635 37.7036 27.2937 36.657 26.9799 36.1091C26.4697 35.218 25.6542 33.4983 25.6542 33.3136C25.6542 33.178 28.364 33.1061 29.6654 33.2072ZM24.1971 34.3275C24.727 35.6127 25.1119 36.3757 25.7941 37.4931C25.9674 37.7769 26.1224 38.0327 26.1386 38.0616C26.2092 38.1871 25.0688 37.8818 24.2493 37.5557C22.8856 37.013 21.7044 36.2298 20.6608 35.1764C20.2086 34.72 20.198 34.7046 20.3089 34.661C20.3718 34.6364 20.5499 34.5592 20.7047 34.4896C21.1092 34.3077 21.9 34.0242 22.4171 33.8757C22.9122 33.7336 23.7797 33.5325 23.8398 33.546C23.8611 33.5507 24.0219 33.9024 24.1971 34.3275ZM32.6897 33.6457C33.3202 33.7852 33.7298 33.9019 34.3461 34.1177C34.7465 34.2579 35.6434 34.6212 35.7575 34.6893C35.8113 34.7215 35.0681 35.4713 34.5545 35.9031C33.4851 36.8024 32.1639 37.4966 30.7719 37.8906C30.4988 37.968 30.1743 38.0501 30.0508 38.0731C29.829 38.1144 29.8271 38.1137 29.8916 38.0151C30.5498 37.0081 31.4426 35.2834 31.892 34.1504C32.0276 33.8085 32.1437 33.5288 32.1498 33.5288C32.156 33.5288 32.399 33.5814 32.6897 33.6457Z" fill="white"/>
</svg>
