<svg width="194" height="48" viewBox="0 0 194 48" fill="none" xmlns="http://www.w3.org/2000/svg">
<path fill-rule="evenodd" clip-rule="evenodd" d="M0.399414 24.2C0.399414 11.0547 11.0541 0.400024 24.1994 0.400024C37.3447 0.400024 47.9994 11.0547 47.9994 24.2C47.9994 37.3454 37.3447 48 24.1994 48C11.0541 48 0.399414 37.3454 0.399414 24.2ZM30.8413 37.207L36.6529 31.3953C39.8354 28.2128 39.8354 23.093 36.5145 19.7721C35.1308 18.25 33.1936 17.5582 31.2564 17.4198C31.118 15.4826 30.4262 13.6837 28.9041 12.1616C25.7215 8.97909 20.6017 8.97909 17.4192 12.1616L11.6076 17.9733L15.482 21.8477L13.5448 23.7849C10.3622 26.9674 10.3622 32.0872 13.5448 35.2698C14.9285 36.7919 16.8657 37.4837 18.8029 37.6221C21.0168 37.7605 23.3692 36.9302 25.0296 35.2698L26.8979 33.4015L23.093 29.5966L28.9046 23.785C30.0116 22.678 31.672 22.678 32.779 23.785C33.886 24.7536 33.886 26.5524 32.779 27.6594L27.0363 33.4021L30.8413 37.207ZM25.1685 16.036C26.2755 17.143 26.2755 18.8034 25.1685 19.9104L19.426 25.653L23.2311 29.4581L21.2939 31.3953C20.1869 32.5023 18.5264 32.5023 17.4194 31.3953C16.3125 30.2883 16.3125 28.6278 17.4194 27.5209L19.2876 25.6527L15.4825 21.8476L21.2941 16.036C22.4011 14.929 24.0616 14.929 25.1685 16.036Z" fill="#70F1D9"/>
<path d="M68.7785 33.8061C66.0131 33.8061 63.6798 32.9419 61.865 31.1271C60.0502 29.3123 59.0996 27.0654 59.0996 24.3865C59.0996 21.7075 60.0502 19.4606 61.865 17.6458C63.6798 15.831 66.0131 14.9668 68.7785 14.9668C70.5933 14.9668 72.2353 15.3989 73.7044 16.1767C75.1735 17.0408 76.297 18.1643 77.1612 19.547C78.0254 21.0161 78.371 22.5717 78.371 24.3865C78.371 27.0654 77.4204 29.3988 75.6056 31.1271C73.8772 32.8555 71.5439 33.8061 68.7785 33.8061ZM68.7785 30.0901C69.8155 30.0901 70.8526 29.8309 71.7168 29.3123C72.581 28.7938 73.2723 28.1025 73.7908 27.2383C74.3094 26.3741 74.5686 25.3371 74.5686 24.3C74.5686 22.6581 74.0501 21.2754 72.9266 20.1519C71.8032 19.0285 70.5069 18.51 68.8649 18.51C67.223 18.51 65.9267 19.0285 64.8032 20.1519C63.6798 21.2754 63.1613 22.6581 63.1613 24.3C63.1613 25.942 63.6798 27.3247 64.8032 28.4482C65.8403 29.4852 67.223 30.0901 68.7785 30.0901Z" fill="white"/>
<path d="M93.0626 15.2261H96.865V33.3741H93.5811L85.3713 22.0532V33.3741H81.4824V15.2261H85.0256L92.9761 26.2877V15.2261H93.0626Z" fill="white"/>
<path d="M111.988 23.868C112.766 24.3001 113.371 24.905 113.803 25.5964C114.235 26.3741 114.494 27.2383 114.494 28.1889C114.494 29.6581 113.976 30.8679 112.852 31.9049C111.729 32.942 110.432 33.4605 108.79 33.4605H101.099V15.3125H108.618C110.173 15.3125 111.469 15.7446 112.506 16.6088C113.543 17.473 114.062 18.5964 114.062 19.9791C114.062 20.7569 113.889 21.5347 113.543 22.226C113.111 22.831 112.593 23.3495 111.988 23.868ZM110.173 20.4976C110.173 20.2384 110.087 19.9791 110 19.7199C109.914 19.4606 109.741 19.2878 109.568 19.1149C109.395 18.9421 109.223 18.7693 108.963 18.6828C108.704 18.5964 108.445 18.51 108.099 18.51H104.815V22.3989H108.099C108.704 22.3989 109.223 22.226 109.568 21.8803C109.914 21.5347 110.173 21.1026 110.173 20.4976ZM108.358 29.8309C108.963 29.8309 109.482 29.6581 109.914 29.226C110.346 28.8803 110.519 28.3618 110.519 27.7568C110.519 27.1519 110.346 26.7198 109.914 26.2877C109.482 25.942 108.963 25.6828 108.358 25.6828H104.902V29.7445H108.358V29.8309Z" fill="white"/>
<path d="M127.716 33.3741L124.173 27.1519H121.667V33.3741H117.691V15.2261H125.037C126.247 15.2261 127.284 15.4853 128.321 16.0038C129.272 16.5224 130.049 17.2137 130.568 18.1643C131.086 19.1149 131.346 20.152 131.346 21.2754C131.346 22.3989 131.086 23.5223 130.481 24.3865C129.876 25.3371 129.099 26.0284 128.062 26.547L132.123 33.4605H127.716V33.3741ZM121.667 18.8557V23.5223H124.778C125.556 23.5223 126.247 23.263 126.679 22.8309C127.111 22.3988 127.37 21.7939 127.37 21.1026C127.37 20.6705 127.284 20.2384 127.025 19.8927C126.852 19.547 126.506 19.2878 126.074 19.0285C125.642 18.8557 125.21 18.7692 124.691 18.7692H121.667V18.8557Z" fill="white"/>
<path d="M134.802 33.3741V15.2261H138.778V33.3741H134.802Z" fill="white"/>
<path d="M149.753 15.2261C152.432 15.2261 154.593 16.0903 156.321 17.8186C158.05 19.547 158.914 21.7075 158.914 24.3001C158.914 26.8926 158.05 29.1395 156.321 30.7815C154.593 32.5099 152.346 33.3741 149.753 33.3741H142.84V15.2261H149.753ZM149.667 29.7445C151.222 29.7445 152.519 29.226 153.469 28.1889C154.42 27.1519 154.939 25.8556 154.939 24.3001C154.939 22.7445 154.42 21.4482 153.469 20.4112C152.519 19.3742 151.222 18.9421 149.667 18.9421H146.815V29.7445H149.667Z" fill="white"/>
<path d="M170.062 23.8679H179.741C179.741 26.7198 178.877 29.1395 177.148 30.9543C175.42 32.7691 173.173 33.7197 170.494 33.7197C167.815 33.7197 165.568 32.8555 163.753 31.0407C161.938 29.2259 161.074 26.979 161.074 24.3C161.074 21.5346 161.938 19.2877 163.753 17.4729C165.482 15.6581 167.728 14.7939 170.407 14.7939C172.654 14.7939 174.642 15.3989 176.37 16.6952C178.099 17.9914 179.136 19.6334 179.568 21.7075H175.506C175.247 21.0161 174.901 20.4976 174.383 19.9791C173.864 19.547 173.346 19.1149 172.654 18.8556C171.963 18.5964 171.272 18.4235 170.494 18.4235C168.852 18.4235 167.556 18.942 166.605 20.0655C165.568 21.1025 165.136 22.4852 165.136 24.2136C165.136 25.3371 165.395 26.2877 165.827 27.1519C166.259 28.016 166.951 28.7074 167.728 29.1395C168.593 29.658 169.457 29.8308 170.58 29.8308C171.358 29.8308 172.136 29.7444 172.827 29.3987C173.519 29.1395 174.123 28.7938 174.642 28.2753C175.16 27.8432 175.506 27.2383 175.679 26.6333H170.235V23.8679H170.062Z" fill="white"/>
<path d="M186.74 29.7445H194V33.3741H182.852V15.2261H193.74V18.8557H186.827V22.3988H193.135V25.942H186.827V29.7445H186.74Z" fill="white"/>
</svg>
