<svg width="50" height="50" viewBox="0 0 50 50" fill="none" xmlns="http://www.w3.org/2000/svg">
<rect opacity="0.1" x="1" y="1" width="48" height="48" rx="24" stroke="#70F1D9"/>
<path d="M15.844 19.8766C15.88 19.5775 15.76 19.2903 15.544 19.0989L13.3 16.4068V16H20.26L25.636 27.7613L30.364 16H37V16.4068L35.08 18.2374C34.924 18.3571 34.84 18.5724 34.876 18.7758V32.2242C34.84 32.4276 34.924 32.6429 35.08 32.7626L36.952 34.5932V35H27.544V34.5932L29.476 32.7147C29.668 32.5353 29.668 32.4754 29.668 32.1883V21.3123L24.28 34.9521H23.56L17.284 21.3123V30.4534C17.2 30.8363 17.356 31.2191 17.632 31.4824L20.152 34.5573V34.9521H13V34.5573L15.52 31.4824C15.796 31.2191 15.916 30.8363 15.844 30.4534V19.8766Z" fill="#70F1D9"/>
</svg>
