<svg width="228" height="228" viewBox="0 0 228 228" fill="none" xmlns="http://www.w3.org/2000/svg">
<rect x="97" y="123.628" width="5" height="19" transform="rotate(-45 97 123.628)" fill="#6EEAD3"/>
<rect x="129.526" y="110.9" width="5" height="32" transform="rotate(45 129.526 110.9)" fill="#6EEAD3"/>
<circle opacity="0.2" cx="114" cy="120" r="40" fill="#71F1D9"/>
<path d="M159.483 83.1893L171.564 78.0118L176.742 65.9307L181.92 78.0118L194.001 83.1893L181.92 88.3669L176.742 100.448L171.564 88.3669L159.483 83.1893Z" fill="#9E57E4"/>
<path d="M154 64.1837L157.629 62.6286L159.184 59.0001L160.739 62.6286L164.367 64.1837L160.739 65.7388L159.184 69.3673L157.629 65.7388L154 64.1837Z" fill="#70F1D9"/>
<path d="M173 119.966L176.629 118.411L178.184 114.783L179.739 118.411L183.367 119.966L179.739 121.522L178.184 125.15L176.629 121.522L173 119.966Z" fill="#70F1D9"/>
<path d="M186.336 64.2462L188.995 63.1067L190.134 60.4479L191.274 63.1067L193.933 64.2462L191.274 65.3857L190.134 68.0446L188.995 65.3857L186.336 64.2462Z" fill="#70F1D9"/>
<path d="M44.8184 151.729L53.7285 147.91L57.5471 139L61.3658 147.91L70.2759 151.729L61.3658 155.548L57.5471 164.458L53.7285 155.548L44.8184 151.729Z" fill="#70F1D9"/>
<path d="M64.6582 168.83L66.4041 168.082L67.1523 166.336L67.9005 168.082L69.6464 168.83L67.9005 169.578L67.1523 171.324L66.4041 169.578L64.6582 168.83Z" fill="#9E57E4"/>
<path d="M53 104.95L56.4648 103.465L57.9497 100L59.4347 103.465L62.8995 104.95L59.4347 106.435L57.9497 109.9L56.4648 106.435L53 104.95Z" fill="#9E57E4"/>
<path d="M36 164.648L39.7565 163.038L41.3664 159.281L42.9763 163.038L46.7328 164.648L42.9763 166.258L41.3664 170.014L39.7565 166.258L36 164.648Z" fill="#9E57E4"/>
</svg>
