<svg width="50" height="50" viewBox="0 0 50 50" fill="none" xmlns="http://www.w3.org/2000/svg">
<rect opacity="0.1" x="1" y="1" width="48" height="48" rx="24" stroke="#70F1D9"/>
<path d="M37.5489 19.1477C36.7002 19.5274 35.7959 19.779 34.8531 19.9012C35.823 19.3106 36.5633 18.3826 36.9113 17.2641C36.007 17.8139 35.0086 18.2023 33.9445 18.419C33.0859 17.4866 31.8621 16.9092 30.527 16.9092C27.9368 16.9092 25.8515 19.0532 25.8515 21.6815C25.8515 22.0597 25.8829 22.4234 25.9599 22.7695C22.0703 22.5761 18.6286 20.675 16.3165 17.779C15.9128 18.4932 15.676 19.3106 15.676 20.1906C15.676 21.843 16.5105 23.3077 17.7542 24.1557C17.0025 24.1412 16.2651 23.9186 15.6404 23.5681C15.6404 23.5826 15.6404 23.6015 15.6404 23.6205C15.6404 25.939 17.2621 27.8648 19.3888 28.3085C19.008 28.4146 18.5929 28.4655 18.1621 28.4655C17.8626 28.4655 17.5602 28.4481 17.2764 28.3841C17.8826 30.2735 19.6027 31.6626 21.6481 31.7077C20.0563 32.9775 18.0352 33.7426 15.8472 33.7426C15.4635 33.7426 15.0955 33.7252 14.7275 33.6772C16.8 35.0401 19.2561 35.8183 21.9048 35.8183C30.5142 35.8183 35.2211 28.5455 35.2211 22.2415C35.2211 22.0306 35.2139 21.827 35.204 21.6248C36.1325 20.9528 36.9127 20.1135 37.5489 19.1477Z" fill="#70F1D9"/>
</svg>
