<svg width="40" height="40" viewBox="0 0 40 40" fill="none" xmlns="http://www.w3.org/2000/svg">
<rect x="0.5" y="0.5" width="39" height="39" rx="19.5" fill="#F3BA2F" stroke="#F3BA2F"/>
<path d="M15.1448 19.2552L20 14.4L24.8575 19.2573L27.6825 16.4323L20 8.75L12.32 16.43L15.1449 19.255L15.1448 19.2552ZM7.5 21.25L10.3251 18.4245L13.15 21.2494L10.3249 24.0745L7.5 21.25ZM15.1448 23.2451L20 28.1L24.8574 23.2428L27.6839 26.0663L27.6825 26.0678L20 33.75L12.32 26.07L12.316 26.066L15.1451 23.2448L15.1448 23.2451ZM26.85 21.2512L29.6751 18.4261L32.5 21.251L29.675 24.0761L26.85 21.2512Z" fill="white"/>
<path d="M22.8681 21.2486H22.8693L20.0029 18.382L17.8842 20.5001L17.6408 20.7436L17.1388 21.2457L17.1348 21.2496L17.1388 21.2537L20.0029 24.1182L22.8695 21.2516L22.8709 21.25L22.8683 21.2486" fill="white"/>
</svg>
