<svg width="40" height="40" viewBox="0 0 40 40" fill="none" xmlns="http://www.w3.org/2000/svg">
<path d="M20 40C31.0457 40 40 31.0457 40 20C40 8.95429 31.0457 0 20 0C8.95429 0 0 8.95429 0 20C0 31.0457 8.95429 40 20 40Z" fill="#8247E5"/>
<path d="M26.3652 15.9214C25.904 15.6495 25.3044 15.6495 24.7971 15.9214L21.1993 18.0054L18.7546 19.3645L15.1569 21.4484C14.6956 21.7202 14.0959 21.7202 13.5885 21.4484L10.7288 19.8174C10.2675 19.5456 9.94464 19.0474 9.94464 18.5036V15.2871C9.94464 14.7435 10.2214 14.2451 10.7288 13.9732L13.5424 12.3877C14.0036 12.1159 14.6034 12.1159 15.1108 12.3877L17.9244 13.9732C18.3856 14.2451 18.7085 14.7435 18.7085 15.2871V17.3711L21.1531 15.9666V13.8827C21.1531 13.339 20.8764 12.8407 20.369 12.5689L15.1569 9.57886C14.6956 9.30707 14.0959 9.30707 13.5885 9.57886L8.28414 12.5689C7.77671 12.8407 7.5 13.339 7.5 13.8827V19.9081C7.5 20.4517 7.77671 20.9501 8.28414 21.2219L13.5885 24.212C14.0498 24.4837 14.6495 24.4837 15.1569 24.212L18.7546 22.1732L21.1993 20.7689L24.7971 18.7302C25.2582 18.4584 25.8579 18.4584 26.3652 18.7302L29.179 20.3159C29.6401 20.5876 29.963 21.086 29.963 21.6296V24.8461C29.963 25.3899 29.6864 25.8881 29.179 26.16L26.3652 27.7909C25.904 28.0627 25.3044 28.0627 24.7971 27.7909L21.9834 26.2052C21.5221 25.9335 21.1993 25.4351 21.1993 24.8915V22.8075L18.7546 24.212V26.2959C18.7546 26.8395 19.0314 27.3379 19.5387 27.6096L24.8431 30.5997C25.3044 30.8715 25.904 30.8715 26.4114 30.5997L31.7159 27.6096C32.1771 27.3379 32.5 26.8395 32.5 26.2959V20.2705C32.5 19.7269 32.2232 19.2286 31.7159 18.9567L26.3652 15.9214Z" fill="white"/>
</svg>
